<?xml version="1.0" encoding="UTF-8" standalone="no"?>
<!-- Created with Inkscape (http://www.inkscape.org/) -->

<svg
   xmlns:dc="http://purl.org/dc/elements/1.1/"
   xmlns:cc="http://creativecommons.org/ns#"
   xmlns:rdf="http://www.w3.org/1999/02/22-rdf-syntax-ns#"
   xmlns:svg="http://www.w3.org/2000/svg"
   xmlns="http://www.w3.org/2000/svg"
   xmlns:sodipodi="http://sodipodi.sourceforge.net/DTD/sodipodi-0.dtd"
   xmlns:inkscape="http://www.inkscape.org/namespaces/inkscape"
   width="644.8089"
   height="231.64395"
   viewbox="0 0 645 232"
   id="svg2"
   version="1.1"
   inkscape:version="0.48.4 r9939"
   sodipodi:docname="spaceship02.svg">
  <defs
     id="defs4">
    <inkscape:perspective
       sodipodi:type="inkscape:persp3d"
       inkscape:vp_x="0 : 174.2301 : 1"
       inkscape:vp_y="0 : 1000 : 0"
       inkscape:vp_z="386.72675 : 119.68186 : 1"
       inkscape:persp3d-origin="193.36337 : 116.1534 : 1"
       id="perspective3899" />
  </defs>
  <sodipodi:namedview
     id="base"
     pagecolor="#ffffff"
     bordercolor="#666666"
     borderopacity="1.0"
     inkscape:pageopacity="0.0"
     inkscape:pageshadow="2"
     inkscape:zoom="0.98994949"
     inkscape:cx="249.50938"
     inkscape:cy="88.226143"
     inkscape:document-units="px"
     inkscape:current-layer="layer1"
     showgrid="false"
     inkscape:window-width="1215"
     inkscape:window-height="1000"
     inkscape:window-x="65"
     inkscape:window-y="24"
     inkscape:window-maximized="1"
     fit-margin-top="5"
     fit-margin-left="5"
     fit-margin-right="10"
     fit-margin-bottom="5" />
  <metadata
     id="metadata7">
    <rdf:RDF>
      <cc:Work
         rdf:about="">
        <dc:format>image/svg+xml</dc:format>
        <dc:type
           rdf:resource="http://purl.org/dc/dcmitype/StillImage" />
        <dc:title></dc:title>
      </cc:Work>
    </rdf:RDF>
  </metadata>
  <g
     inkscape:label="Layer 1"
     inkscape:groupmode="layer"
     id="layer1"
     transform="translate(-251.2823,-204.10067)">
    <g
       id="g3854"
       transform="matrix(0.39454158,0.52264993,-0.52264993,0.39454158,428.91216,8.7441036)">
      <path
         sodipodi:nodetypes="cssac"
         inkscape:connector-curvature="0"
         id="path3781"
         d="m 282.84273,337.17418 c -25.10642,17.43583 -36.24529,31.34485 -43.43656,47.47717 -13.24514,29.7131 -44.11896,104.20763 -14.14215,113.13709 32.54632,9.69486 35.02748,-54.62043 63.63962,-63.63961 11.08748,-3.49502 22.35502,3.86337 34.34518,6.06091"
         style="fill:#000000;fill-opacity:1;stroke:#ffffff;stroke-width:2;stroke-linecap:butt;stroke-linejoin:miter;stroke-miterlimit:4;stroke-opacity:1;stroke-dasharray:none" />
      <path
         sodipodi:nodetypes="cssac"
         inkscape:connector-curvature="0"
         id="path3781-8"
         d="m 368.93463,337.17418 c 25.10642,17.43583 36.24529,31.34485 43.43656,47.47717 13.24514,29.7131 44.11896,104.20763 14.14215,113.13709 -32.54632,9.69486 -35.02748,-54.62043 -63.63962,-63.63961 -11.08748,-3.49502 -22.35502,3.86337 -34.34519,6.06091"
         style="fill:#000000;fill-opacity:1;stroke:#ffffff;stroke-width:2;stroke-linecap:butt;stroke-linejoin:miter;stroke-miterlimit:4;stroke-opacity:1;stroke-dasharray:none" />
      <path
         id="path2989-6"
         d="m 325.8125,125 c -158.18901,-0.50325 0,350.21875 0,350.21875 0,0 159.1998,-349.71229 0,-350.21875 z m 0.21875,63.6875 c 17.57359,0 31.8125,14.23891 31.8125,31.8125 0,17.57359 -14.23891,31.8125 -31.8125,31.8125 -17.57359,0 -31.8125,-14.23891 -31.8125,-31.8125 0,-17.57359 14.23891,-31.8125 31.8125,-31.8125 z m 0,85.84375 c 11.15784,0 20.1875,9.06091 20.1875,20.21875 0,11.15784 -9.02966,20.1875 -20.1875,20.1875 -11.15784,0 -20.21875,-9.02966 -20.21875,-20.1875 0,-11.15784 9.06091,-20.21875 20.21875,-20.21875 z m 0,59.625 c 6.97365,0 12.625,5.65135 12.625,12.625 0,6.97365 -5.65135,12.625 -12.625,12.625 -6.97365,0 -12.625,-5.65135 -12.625,-12.625 0,-6.97365 5.65135,-12.625 12.625,-12.625 z"
         style="fill:#000000;fill-opacity:1;stroke:#ffffff;stroke-width:2;stroke-linecap:butt;stroke-linejoin:miter;stroke-miterlimit:4;stroke-opacity:1;stroke-dasharray:none"
         inkscape:connector-curvature="0" />
    </g>
    <g
       style="font-size:72px;font-style:normal;font-variant:normal;font-weight:normal;font-stretch:normal;line-height:125%;letter-spacing:0px;word-spacing:0px;fill:#000000;fill-opacity:1;stroke:none;font-family:Akashi;-inkscape-font-specification:Akashi"
       id="text2987">
      <path
         d="m 559.13806,294.241 c -4e-5,4.6875 -2.34379,7.03125 -7.03125,7.03125 l -28.125,0 3.51563,-10.54688 21.09375,0 0,-3.51562 -24.60938,0 c -4.6875,1e-5 -7.03125,-2.34374 -7.03125,-7.03125 l 0,-31.64063 10.54688,0 0,28.125 21.09375,0 0,-28.125 10.58203,0 -0.0352,45.70313"
         style=""
         id="path3010" />
      <path
         d="m 608.35681,294.27615 c -4e-5,4.68751 -2.34379,7.03125 -7.03125,7.03125 l -28.125,0 c -4.6875,0 -7.03125,-2.34374 -7.03125,-7.03125 l 0,-24.60937 c 0,-4.68747 2.34375,-7.03121 7.03125,-7.03125 l 28.125,0 c 4.68746,4e-5 7.03121,2.34378 7.03125,7.03125 l 0,24.60937 m -31.64062,-21.09375 0,17.57813 21.09375,0 0,-17.57813 -21.09375,0"
         style=""
         id="path3012" />
      <path
         d="m 615.38806,301.3074 0,-31.64062 c 0,-4.68747 2.34375,-7.03121 7.03125,-7.03125 l 21.0586,0 -3.51563,10.54687 -14.02734,0 0,28.125 -10.54688,0"
         style=""
         id="path3014" />
      <path
         d="m 657.57556,276.69803 5.83594,0 4.67578,-14.0625 10.54688,0 -4.71094,14.13281 c 2.01559,0.18753 3.67965,0.86721 4.99219,2.03906 1.3359,1.1719 2.42574,2.81252 3.26953,4.92188 l 7.03125,17.57812 -10.54688,0 -6.01172,-14.0625 -15.08203,0 0,14.0625 -10.54687,0 0,-52.73437 10.54687,0 0,28.125"
         style=""
         id="path3016" />
      <path
         d="m 756.04822,259.08475 -28.16016,0 0,10.58203 24.60938,0 c 4.68746,3e-5 7.0312,2.33206 7.03125,6.99609 l 0,17.57813 c -5e-5,4.6875 -2.34379,7.03125 -7.03125,7.03125 l -35.15625,0 0,-10.51172 31.64062,-0.0352 0,-10.54687 -24.60937,0 c -4.68751,2e-5 -7.03125,-2.33201 -7.03125,-6.9961 l 0,-17.57812 c 0,-4.71089 2.34374,-7.06635 7.03125,-7.06641 l 35.15625,0 -3.48047,10.54688"
         style=""
         id="path3018" />
      <path
         d="m 798.20056,273.1824 -21.09375,0 0,17.57813 24.60938,0 0,10.54687 -28.125,0 c -4.68751,0 -7.03125,-2.34374 -7.03125,-7.03125 l 0,-24.60937 c 0,-4.68747 2.34374,-7.03121 7.03125,-7.03125 l 28.125,0 -3.51563,10.54687"
         style=""
         id="path3020" />
      <path
         d="m 819.29431,248.57303 -3.51562,10.54687 -7.03125,0 0,-10.54687 10.54687,0 m 0,52.73437 0,-38.67187 -10.54687,0 0,38.67187 10.54687,0"
         style=""
         id="path3022" />
      <path
         d="m 836.87244,280.21365 0,21.09375 -10.54688,0 0,-45.70312 c 0,-4.68745 2.34375,-7.0312 7.03125,-7.03125 l 28.125,0 0,10.54687 -24.60937,0 0,10.54688 14.0625,0 -3.51563,10.54687 -10.54687,0"
         style=""
         id="path3024" />
      <path
         d="m 879.05994,248.57303 -3.51563,10.54687 -7.03125,0 0,-10.54687 10.54688,0 m 0,52.73437 0,-38.67187 -10.54688,0 0,38.67187 10.54688,0"
         style=""
         id="path3026" />
      <path
         d="m 545.14587,349.1199 -17.64843,0 0,10.51172 17.64843,0 0,-10.51172 m 3.44532,21.12891 -21.09375,0 0,10.51172 21.09375,0 0,-10.51172 m 7.10156,-4.67578 c 2.29683,0.9844 3.44527,3.11721 3.44531,6.39844 l 0,12.30468 c -4e-5,4.68751 -2.34379,7.03125 -7.03125,7.03125 l -35.15625,0 0,-52.73437 31.71094,0 c 4.68746,5e-5 7.03121,2.3438 7.03125,7.03125 l 0,19.96875"
         style=""
         id="path3028" />
      <path
         d="m 608.35681,384.27615 c -4e-5,4.68751 -2.34379,7.03125 -7.03125,7.03125 l -28.125,0 c -4.6875,0 -7.03125,-2.34374 -7.03125,-7.03125 l 0,-24.60937 c 0,-4.68747 2.34375,-7.03121 7.03125,-7.03125 l 28.125,0 c 4.68746,4e-5 7.03121,2.34378 7.03125,7.03125 l 0,24.60937 m -31.64062,-21.09375 0,17.57813 21.09375,0 0,-17.57813 -21.09375,0"
         style=""
         id="path3030" />
      <path
         d="m 657.57556,384.27615 c -4e-5,4.68751 -2.34379,7.03125 -7.03125,7.03125 l -28.125,0 c -4.6875,0 -7.03125,-2.34374 -7.03125,-7.03125 l 0,-24.60937 c 0,-4.68747 2.34375,-7.03121 7.03125,-7.03125 l 28.125,0 c 4.68746,4e-5 7.03121,2.34378 7.03125,7.03125 l 0,24.60937 m -31.64062,-21.09375 0,17.57813 21.09375,0 0,-17.57813 -21.09375,0"
         style=""
         id="path3032" />
      <path
         d="m 675.15369,366.69803 5.83593,0 4.67579,-14.0625 10.54687,0 -4.71094,14.13281 c 2.0156,0.18753 3.67966,0.86721 4.99219,2.03906 1.3359,1.1719 2.42575,2.81252 3.26953,4.92188 l 7.03125,17.57812 -10.54687,0 -6.01172,-14.0625 -15.08203,0 0,14.0625 -10.54688,0 0,-52.73437 10.54688,0 0,28.125"
         style=""
         id="path3034" />
      <path
         d="m 766.55994,349.1199 -21.09375,0 0,31.64063 24.60937,0 0,10.54687 -28.125,0 c -4.6875,0 -7.03125,-2.34374 -7.03125,-7.03125 l 0,-38.67187 c 0,-4.68745 2.34375,-7.0312 7.03125,-7.03125 l 28.125,0 -3.51562,10.54687"
         style=""
         id="path3036" />
      <path
         d="m 777.10681,391.3074 0,-52.73437 10.54688,0 0,52.73437 -10.54688,0"
         style=""
         id="path3038" />
      <path
         d="m 805.23181,352.63553 0,28.125 21.09375,0 0.0352,-28.125 10.54687,0 0,31.64062 c -4e-5,4.68751 -2.34379,7.03125 -7.03125,7.03125 l -28.16015,0 c -4.68751,0 -7.03125,-2.34374 -7.03125,-7.03125 l 0,-31.64062 10.54687,0"
         style=""
         id="path3040" />
      <path
         d="m 850.93494,391.3074 c -4.68751,0 -7.03125,-2.34374 -7.03125,-7.03125 l 0,-45.70312 10.54687,0 0,42.1875 21.09375,0 0,-17.57813 -17.57812,0 3.51562,-10.54687 17.57813,0 c 4.68746,4e-5 7.0312,2.34378 7.03125,7.03125 l 0,24.60937 c -5e-5,4.68751 -2.34379,7.03125 -7.03125,7.03125 l -28.125,0 0,0"
         style=""
         id="path3042" />
    </g>
  </g>
</svg>
