<?xml version="1.0" encoding="UTF-8" standalone="no"?>
<!-- Created with Inkscape (http://www.inkscape.org/) -->

<svg
   xmlns:dc="http://purl.org/dc/elements/1.1/"
   xmlns:cc="http://creativecommons.org/ns#"
   xmlns:rdf="http://www.w3.org/1999/02/22-rdf-syntax-ns#"
   xmlns:svg="http://www.w3.org/2000/svg"
   xmlns="http://www.w3.org/2000/svg"
   xmlns:sodipodi="http://sodipodi.sourceforge.net/DTD/sodipodi-0.dtd"
   xmlns:inkscape="http://www.inkscape.org/namespaces/inkscape"
   width="644.8089"
   height="231.64395"
   id="svg2"
   version="1.1"
   inkscape:version="0.48.4 r9939"
   sodipodi:docname="spaceship01.svg">
  <defs
     id="defs4">
    <inkscape:perspective
       sodipodi:type="inkscape:persp3d"
       inkscape:vp_x="0 : 174.2301 : 1"
       inkscape:vp_y="0 : 1000 : 0"
       inkscape:vp_z="386.72675 : 119.68186 : 1"
       inkscape:persp3d-origin="193.36337 : 116.1534 : 1"
       id="perspective3899" />
  </defs>
  <sodipodi:namedview
     id="base"
     pagecolor="#ffffff"
     bordercolor="#666666"
     borderopacity="1.0"
     inkscape:pageopacity="0.0"
     inkscape:pageshadow="2"
     inkscape:zoom="0.98994949"
     inkscape:cx="249.50938"
     inkscape:cy="88.226143"
     inkscape:document-units="px"
     inkscape:current-layer="layer1"
     showgrid="false"
     inkscape:window-width="1215"
     inkscape:window-height="1000"
     inkscape:window-x="65"
     inkscape:window-y="24"
     inkscape:window-maximized="1"
     fit-margin-top="5"
     fit-margin-left="5"
     fit-margin-right="10"
     fit-margin-bottom="5" />
  <metadata
     id="metadata7">
    <rdf:RDF>
      <cc:Work
         rdf:about="">
        <dc:format>image/svg+xml</dc:format>
        <dc:type
           rdf:resource="http://purl.org/dc/dcmitype/StillImage" />
        <dc:title />
      </cc:Work>
    </rdf:RDF>
  </metadata>
  <g
     inkscape:label="Layer 1"
     inkscape:groupmode="layer"
     id="layer1"
     transform="translate(-251.2823,-204.10067)">
    <g
       id="g3854"
       transform="matrix(0.39454158,0.52264993,-0.52264993,0.39454158,428.91216,8.7441036)">
      <path
         sodipodi:nodetypes="cssac"
         inkscape:connector-curvature="0"
         id="path3781"
         d="m 282.84273,337.17418 c -25.10642,17.43583 -36.24529,31.34485 -43.43656,47.47717 -13.24514,29.7131 -44.11896,104.20763 -14.14215,113.13709 32.54632,9.69486 35.02748,-54.62043 63.63962,-63.63961 11.08748,-3.49502 22.35502,3.86337 34.34518,6.06091"
         style="fill:#000000;fill-opacity:1;stroke:#ffffff;stroke-width:2;stroke-linecap:butt;stroke-linejoin:miter;stroke-miterlimit:4;stroke-opacity:1;stroke-dasharray:none" />
      <path
         sodipodi:nodetypes="cssac"
         inkscape:connector-curvature="0"
         id="path3781-8"
         d="m 368.93463,337.17418 c 25.10642,17.43583 36.24529,31.34485 43.43656,47.47717 13.24514,29.7131 44.11896,104.20763 14.14215,113.13709 -32.54632,9.69486 -35.02748,-54.62043 -63.63962,-63.63961 -11.08748,-3.49502 -22.35502,3.86337 -34.34519,6.06091"
         style="fill:#000000;fill-opacity:1;stroke:#ffffff;stroke-width:2;stroke-linecap:butt;stroke-linejoin:miter;stroke-miterlimit:4;stroke-opacity:1;stroke-dasharray:none" />
      <path
         id="path2989-6"
         d="m 325.8125,125 c -158.18901,-0.50325 0,350.21875 0,350.21875 0,0 159.1998,-349.71229 0,-350.21875 z m 0.21875,63.6875 c 17.57359,0 31.8125,14.23891 31.8125,31.8125 0,17.57359 -14.23891,31.8125 -31.8125,31.8125 -17.57359,0 -31.8125,-14.23891 -31.8125,-31.8125 0,-17.57359 14.23891,-31.8125 31.8125,-31.8125 z m 0,85.84375 c 11.15784,0 20.1875,9.06091 20.1875,20.21875 0,11.15784 -9.02966,20.1875 -20.1875,20.1875 -11.15784,0 -20.21875,-9.02966 -20.21875,-20.1875 0,-11.15784 9.06091,-20.21875 20.21875,-20.21875 z m 0,59.625 c 6.97365,0 12.625,5.65135 12.625,12.625 0,6.97365 -5.65135,12.625 -12.625,12.625 -6.97365,0 -12.625,-5.65135 -12.625,-12.625 0,-6.97365 5.65135,-12.625 12.625,-12.625 z"
         style="fill:#000000;fill-opacity:1;stroke:#ffffff;stroke-width:2;stroke-linecap:butt;stroke-linejoin:miter;stroke-miterlimit:4;stroke-opacity:1;stroke-dasharray:none"
         inkscape:connector-curvature="0" />
    </g>
    <text
       xml:space="preserve"
       style="font-size:72px;font-style:normal;font-variant:normal;font-weight:normal;font-stretch:normal;line-height:125%;letter-spacing:0px;word-spacing:0px;fill:#000000;fill-opacity:1;stroke:none;font-family:Akashi;-inkscape-font-specification:Akashi"
       x="516.95056"
       y="301.3074"
       id="text2987"
       sodipodi:linespacing="125%"><tspan
         sodipodi:role="line"
         x="516.95056"
         y="301.3074"
         id="tspan2999">York SciFi</tspan><tspan
         sodipodi:role="line"
         x="516.95056"
         y="391.3074"
         id="tspan3003">Book Club</tspan></text>
  </g>
</svg>
