<?xml version="1.0" encoding="UTF-8" standalone="no"?>
<!-- Created with Inkscape (http://www.inkscape.org/) -->

<svg
   inkscape:export-ydpi="50.53"
   inkscape:export-xdpi="50.53"
   inkscape:export-filename="spaceship01.jpg"
   sodipodi:docname="spaceship01.svg"
   inkscape:version="1.2.1 (0b8a7e5fb6, 2022-09-14, custom)"
   version="1.1"
   id="svg2"
   height="283.97498"
   width="1106.0009"
   xmlns:inkscape="http://www.inkscape.org/namespaces/inkscape"
   xmlns:sodipodi="http://sodipodi.sourceforge.net/DTD/sodipodi-0.dtd"
   xmlns="http://www.w3.org/2000/svg"
   xmlns:svg="http://www.w3.org/2000/svg"
   xmlns:rdf="http://www.w3.org/1999/02/22-rdf-syntax-ns#"
   xmlns:cc="http://creativecommons.org/ns#"
   xmlns:dc="http://purl.org/dc/elements/1.1/">
  <defs
     id="defs4">
    <inkscape:perspective
       sodipodi:type="inkscape:persp3d"
       inkscape:vp_x="0 : 226.56113 : 1"
       inkscape:vp_y="0 : 1000 : 0"
       inkscape:vp_z="386.72675 : 172.01289 : 1"
       inkscape:persp3d-origin="193.36337 : 168.48443 : 1"
       id="perspective3899" />
  </defs>
  <sodipodi:namedview
     id="base"
     pagecolor="#ffffff"
     bordercolor="#666666"
     borderopacity="1.0"
     inkscape:pageopacity="0.0"
     inkscape:pageshadow="2"
     inkscape:zoom="2.8"
     inkscape:cx="250"
     inkscape:cy="149.64286"
     inkscape:document-units="px"
     inkscape:current-layer="layer1"
     showgrid="false"
     inkscape:window-width="1920"
     inkscape:window-height="1043"
     inkscape:window-x="1920"
     inkscape:window-y="840"
     inkscape:window-maximized="1"
     fit-margin-top="5"
     fit-margin-left="5"
     fit-margin-right="10"
     fit-margin-bottom="5"
     inkscape:showpageshadow="2"
     inkscape:pagecheckerboard="0"
     inkscape:deskcolor="#d1d1d1" />
  <metadata
     id="metadata7">
    <rdf:RDF>
      <cc:Work
         rdf:about="">
        <dc:format>image/svg+xml</dc:format>
        <dc:type
           rdf:resource="http://purl.org/dc/dcmitype/StillImage" />
        <dc:title />
      </cc:Work>
    </rdf:RDF>
  </metadata>
  <g
     inkscape:label="Layer 1"
     inkscape:groupmode="layer"
     id="layer1"
     transform="translate(-253.63637,-164.46819)">
    <rect
       id="rect339"
       width="1106.0009"
       height="283.97498"
       x="253.63637"
       y="164.46819"
       style="fill:#000000;stroke-width:1.11685" />
    <g
       id="g3854"
       transform="matrix(0.37923708,0.53419773,-0.50237603,0.40325886,444.40871,-11.952809)">
      <path
         sodipodi:nodetypes="cssac"
         inkscape:connector-curvature="0"
         id="path3781"
         d="m 282.84273,337.17418 c -25.10642,17.43583 -36.24529,31.34485 -43.43656,47.47717 -13.24514,29.7131 -44.11896,104.20763 -14.14215,113.13709 32.54632,9.69486 35.02748,-54.62043 63.63962,-63.63961 11.08748,-3.49502 22.35502,3.86337 34.34518,6.06091"
         style="fill:#ffffff;fill-opacity:1;stroke:#000000;stroke-width:2;stroke-linecap:butt;stroke-linejoin:miter;stroke-miterlimit:4;stroke-dasharray:none;stroke-opacity:1" />
      <path
         sodipodi:nodetypes="cssac"
         inkscape:connector-curvature="0"
         id="path3781-8"
         d="m 368.93463,337.17418 c 25.10642,17.43583 36.24529,31.34485 43.43656,47.47717 13.24514,29.7131 44.11896,104.20763 14.14215,113.13709 -32.54632,9.69486 -35.02748,-54.62043 -63.63962,-63.63961 -11.08748,-3.49502 -22.35502,3.86337 -34.34519,6.06091"
         style="fill:#ffffff;fill-opacity:1;stroke:#000000;stroke-width:2;stroke-linecap:butt;stroke-linejoin:miter;stroke-miterlimit:4;stroke-dasharray:none;stroke-opacity:1" />
      <path
         style="fill:#ffffff;fill-opacity:1;stroke:#000000;stroke-width:2;stroke-linecap:butt;stroke-linejoin:miter;stroke-miterlimit:4;stroke-dasharray:none;stroke-opacity:1"
         d="m 325.8125,125 c -158.18901,-0.50325 0,350.21875 0,350.21875 0,0 159.1998,-349.71229 0,-350.21875 z"
         id="path2989-6" />
    </g>
    <text
       xml:space="preserve"
       style="font-style:normal;font-variant:normal;font-weight:normal;font-stretch:normal;font-size:96px;line-height:0.95;font-family:'Next Sphere';-inkscape-font-specification:'Next Sphere, Normal';font-variant-ligatures:normal;font-variant-caps:normal;font-variant-numeric:normal;font-variant-east-asian:normal;letter-spacing:0px;word-spacing:0px;fill:#000000;fill-opacity:1;stroke:none"
       x="541.57501"
       y="297.23117"
       id="text2987"><tspan
         sodipodi:role="line"
         x="541.57501"
         y="297.23117"
         style="font-style:normal;font-variant:normal;font-weight:normal;font-stretch:normal;font-size:96px;font-family:'Next Sphere';-inkscape-font-specification:'Next Sphere, Normal';font-variant-ligatures:normal;font-variant-caps:normal;font-variant-numeric:normal;font-variant-east-asian:normal;fill:#ffffff"
         id="tspan275">York Sci Fi</tspan><tspan
         sodipodi:role="line"
         x="541.57501"
         y="388.43118"
         style="font-style:normal;font-variant:normal;font-weight:normal;font-stretch:normal;font-size:96px;font-family:'Next Sphere';-inkscape-font-specification:'Next Sphere, Normal';font-variant-ligatures:normal;font-variant-caps:normal;font-variant-numeric:normal;font-variant-east-asian:normal;fill:#ffffff"
         id="tspan277">Book Club</tspan></text>
    <g
       aria-label="o"
       id="text2987-0"
       style="font-size:96px;line-height:0.95;font-family:'Next Sphere';-inkscape-font-specification:'Next Sphere, Normal';letter-spacing:0px;word-spacing:0px;fill:#d40000">
      <path
         d="m 588.04522,361.92161 20.7608,25.05969 q 7.61042,9.18631 6.55046,20.66648 -0.93725,11.49108 -10.08264,19.24839 -9.07865,7.70067 -20.49103,6.68476 -11.28967,-1.00498 -18.9001,-10.19129 l -20.7608,-25.05968 q -7.66639,-9.25386 -6.72913,-20.74495 1.05995,-11.48016 10.13859,-19.18084 9.14541,-7.7573 20.43507,-6.75232 11.41239,1.0159 19.07878,10.26976 z m -10.55498,14.01345 q -3.0218,-3.64751 -7.5622,-4.05169 -4.41771,-0.39325 -8.02246,2.66438 -3.538,3.00099 -3.9934,7.5277 -0.33268,4.53763 2.68911,8.18513 l 15.83641,19.11562 q 2.96583,3.57995 7.38352,3.9732 4.54042,0.40418 8.07842,-2.59681 3.60475,-3.05762 3.93743,-7.59525 0.4554,-4.52671 -2.51043,-8.10666 z"
         style="display:none;fill:#d40000;stroke-width:0.912728"
         id="path759" />
      <path
         style="font-size:96px;line-height:0.95;font-family:'Next Sphere';-inkscape-font-specification:'Next Sphere, Normal';letter-spacing:0px;word-spacing:0px;fill:#d40000;stroke-width:1.12658"
         d="m 457.56715,229.05534 q -3.72981,-4.50212 -9.33402,-5.001 -5.45278,-0.48539 -9.90213,3.28864 -4.36695,3.70413 -4.92905,9.29144 -0.41063,5.6008 3.31917,10.10291 l 19.54688,23.59441 q 3.66072,4.41873 9.11348,4.90412 5.60424,0.49888 9.97119,-3.20524 4.44934,-3.77402 4.85997,-9.37482 0.5621,-5.58732 -3.09862,-10.00605 z"
         id="path466" />
      <path
         style="font-size:96px;line-height:0.95;font-family:'Next Sphere';-inkscape-font-specification:'Next Sphere, Normal';letter-spacing:0px;word-spacing:0px;fill:#d40000;stroke-width:0.816211"
         d="m 422.70018,262.80324 q -2.79828,-3.14987 -7.00284,-3.4989 -4.09094,-0.3396 -7.42906,2.30087 -3.2763,2.59156 -3.69801,6.50068 -0.30808,3.91855 2.4902,7.06841 l 14.66503,16.50764 q 2.74645,3.09152 6.83737,3.43112 4.20458,0.34904 7.48088,-2.24252 3.33811,-2.64046 3.64618,-6.55901 0.42172,-3.90912 -2.32473,-7.00065 z"
         id="path466-7" />
      <path
         style="font-size:96px;line-height:0.95;font-family:'Next Sphere';-inkscape-font-specification:'Next Sphere, Normal';letter-spacing:0px;word-spacing:0px;fill:#d40000;stroke-width:0.44826"
         d="m 395.8234,291.44245 q -1.53681,-1.7299 -3.84594,-1.92159 -2.24673,-0.1865 -4.08001,1.26363 -1.79933,1.42328 -2.03093,3.57015 -0.1692,2.15206 1.36761,3.88195 l 8.05398,9.06594 q 1.50834,1.69785 3.75506,1.88436 2.30914,0.19169 4.10847,-1.23159 1.83328,-1.45013 2.00247,-3.60218 0.23161,-2.14688 -1.27673,-3.84473 z"
         id="path466-7-5" />
      <path
         style="display:none;fill:none;stroke:#0000ff;stroke-width:1px;stroke-linecap:butt;stroke-linejoin:miter;stroke-opacity:1"
         d="M 330.40866,352.13399 503.57839,211.31075"
         id="path293" />
    </g>
  </g>
</svg>
